<svg xmlns="http://www.w3.org/2000/svg" width="800" height="242" viewBox="0 0 800 242" role="img" aria-label="Pixel IT Profile — Alex">
<style>
@keyframes blink { 0%,49%{opacity:1} 50%,100%{opacity:0} }
@keyframes float { 0%,100%{transform:translateY(0)} 50%{transform:translateY(-2px)} }
.blink { animation: blink 1s step-end infinite }
.float { animation: float 3s ease-in-out infinite }
</style>
<defs>
  <!-- Neon glow: used on borders, badges, snake -->
  <filter id="glow" x="-25%" y="-25%" width="150%" height="150%">
    <feGaussianBlur in="SourceGraphic" stdDeviation="2.5" result="blur"/>
    <feMerge><feMergeNode in="blur"/><feMergeNode in="blur"/><feMergeNode in="SourceGraphic"/></feMerge>
  </filter>
  <!-- Subtle glow for secondary elements -->
  <filter id="glow-sm" x="-15%" y="-15%" width="130%" height="130%">
    <feGaussianBlur in="SourceGraphic" stdDeviation="1.2" result="blur"/>
    <feMerge><feMergeNode in="blur"/><feMergeNode in="SourceGraphic"/></feMerge>
  </filter>
  <!-- Scanline texture -->
  <pattern id="scanlines" x="0" y="0" width="2" height="4" patternUnits="userSpaceOnUse">
    <rect x="0" y="0" width="2" height="1" fill="#ffffff" opacity="0.03"/>
  </pattern>
</defs>
<rect width="800" height="242" fill="#0d0d0d"/>
<rect width="800" height="242" fill="url(#scanlines)"/>
<rect x="1" y="1" width="798" height="240" fill="none" stroke="#00ff41" stroke-width="1.5" filter="url(#glow)"/>
<rect x="5" y="5" width="790" height="232" fill="none" stroke="#00ff41" stroke-width="0.5" opacity="0.2" stroke-dasharray="4,4"/>
<rect x="0" y="0" width="10" height="10" fill="#00ff41" filter="url(#glow)"/>
<rect x="790" y="0" width="10" height="10" fill="#00ff41" filter="url(#glow)"/>
<rect x="0" y="232" width="10" height="10" fill="#00ff41" filter="url(#glow)"/>
<rect x="790" y="232" width="10" height="10" fill="#00ff41" filter="url(#glow)"/>
<rect x="10" y="0" width="4" height="2" fill="#00ff41" opacity="0.6"/>
<rect x="0" y="10" width="2" height="4" fill="#00ff41" opacity="0.6"/>
<rect x="786" y="0" width="4" height="2" fill="#00ff41" opacity="0.6"/>
<rect x="798" y="10" width="2" height="4" fill="#00ff41" opacity="0.6"/>
<rect x="10" y="240" width="4" height="2" fill="#00ff41" opacity="0.6"/>
<rect x="0" y="228" width="2" height="4" fill="#00ff41" opacity="0.6"/>
<rect x="786" y="240" width="4" height="2" fill="#00ff41" opacity="0.6"/>
<rect x="798" y="228" width="2" height="4" fill="#00ff41" opacity="0.6"/>
<rect x="16" y="-1" width="142" height="12" fill="#00ff41"/>
<text x="24" y="9" font-family="'Courier New','Courier','Lucida Console',monospace" font-size="9" fill="#000" font-weight="bold"> PIXEL.IT.PROFILE </text>
<text class="blink" x="776" y="34" font-family="'Courier New','Courier','Lucida Console',monospace" font-size="12" fill="#00ff41" text-anchor="end" filter="url(#glow)">█</text>
<rect x="34" y="36" width="68" height="68" fill="#0a150a"/>
<rect x="34" y="36" width="68" height="68" fill="none" stroke="#00ff41" stroke-width="1"/>
<rect x="44" y="41" width="5" height="5" fill="#00ff41" opacity="0.9"/>
<rect x="49" y="41" width="5" height="5" fill="#00ff41" opacity="0.9"/>
<rect x="54" y="41" width="5" height="5" fill="#00ff41" opacity="0.9"/>
<rect x="59" y="41" width="5" height="5" fill="#00ff41" opacity="0.9"/>
<rect x="64" y="41" width="5" height="5" fill="#00ff41" opacity="0.9"/>
<rect x="69" y="41" width="5" height="5" fill="#00ff41" opacity="0.9"/>
<rect x="74" y="41" width="5" height="5" fill="#00ff41" opacity="0.9"/>
<rect x="79" y="41" width="5" height="5" fill="#00ff41" opacity="0.9"/>
<rect x="39" y="46" width="5" height="5" fill="#00ff41" opacity="0.9"/>
<rect x="44" y="46" width="5" height="5" fill="#00ff41" opacity="0.9"/>
<rect x="49" y="46" width="5" height="5" fill="#00ff41" opacity="0.9"/>
<rect x="54" y="46" width="5" height="5" fill="#00ff41" opacity="0.9"/>
<rect x="59" y="46" width="5" height="5" fill="#00ff41" opacity="0.9"/>
<rect x="64" y="46" width="5" height="5" fill="#00ff41" opacity="0.9"/>
<rect x="69" y="46" width="5" height="5" fill="#00ff41" opacity="0.9"/>
<rect x="74" y="46" width="5" height="5" fill="#00ff41" opacity="0.9"/>
<rect x="79" y="46" width="5" height="5" fill="#00ff41" opacity="0.9"/>
<rect x="84" y="46" width="5" height="5" fill="#00ff41" opacity="0.9"/>
<rect x="39" y="51" width="5" height="5" fill="#00ff41" opacity="0.9"/>
<rect x="44" y="51" width="5" height="5" fill="#00ff41" opacity="0.9"/>
<rect x="59" y="51" width="5" height="5" fill="#00ff41" opacity="0.9"/>
<rect x="64" y="51" width="5" height="5" fill="#00ff41" opacity="0.9"/>
<rect x="79" y="51" width="5" height="5" fill="#00ff41" opacity="0.9"/>
<rect x="84" y="51" width="5" height="5" fill="#00ff41" opacity="0.9"/>
<rect x="39" y="56" width="5" height="5" fill="#00ff41" opacity="0.9"/>
<rect x="44" y="56" width="5" height="5" fill="#00ff41" opacity="0.9"/>
<rect x="59" y="56" width="5" height="5" fill="#00ff41" opacity="0.9"/>
<rect x="64" y="56" width="5" height="5" fill="#00ff41" opacity="0.9"/>
<rect x="79" y="56" width="5" height="5" fill="#00ff41" opacity="0.9"/>
<rect x="84" y="56" width="5" height="5" fill="#00ff41" opacity="0.9"/>
<rect x="39" y="61" width="5" height="5" fill="#00ff41" opacity="0.9"/>
<rect x="44" y="61" width="5" height="5" fill="#00ff41" opacity="0.9"/>
<rect x="49" y="61" width="5" height="5" fill="#00ff41" opacity="0.9"/>
<rect x="54" y="61" width="5" height="5" fill="#00ff41" opacity="0.9"/>
<rect x="59" y="61" width="5" height="5" fill="#00ff41" opacity="0.9"/>
<rect x="64" y="61" width="5" height="5" fill="#00ff41" opacity="0.9"/>
<rect x="69" y="61" width="5" height="5" fill="#00ff41" opacity="0.9"/>
<rect x="74" y="61" width="5" height="5" fill="#00ff41" opacity="0.9"/>
<rect x="79" y="61" width="5" height="5" fill="#00ff41" opacity="0.9"/>
<rect x="84" y="61" width="5" height="5" fill="#00ff41" opacity="0.9"/>
<rect x="39" y="66" width="5" height="5" fill="#00ff41" opacity="0.9"/>
<rect x="44" y="66" width="5" height="5" fill="#00ff41" opacity="0.9"/>
<rect x="54" y="66" width="5" height="5" fill="#00ff41" opacity="0.9"/>
<rect x="59" y="66" width="5" height="5" fill="#00ff41" opacity="0.9"/>
<rect x="69" y="66" width="5" height="5" fill="#00ff41" opacity="0.9"/>
<rect x="74" y="66" width="5" height="5" fill="#00ff41" opacity="0.9"/>
<rect x="79" y="66" width="5" height="5" fill="#00ff41" opacity="0.9"/>
<rect x="84" y="66" width="5" height="5" fill="#00ff41" opacity="0.9"/>
<rect x="39" y="71" width="5" height="5" fill="#00ff41" opacity="0.9"/>
<rect x="44" y="71" width="5" height="5" fill="#00ff41" opacity="0.9"/>
<rect x="49" y="71" width="5" height="5" fill="#00ff41" opacity="0.9"/>
<rect x="54" y="71" width="5" height="5" fill="#00ff41" opacity="0.9"/>
<rect x="59" y="71" width="5" height="5" fill="#00ff41" opacity="0.9"/>
<rect x="64" y="71" width="5" height="5" fill="#00ff41" opacity="0.9"/>
<rect x="69" y="71" width="5" height="5" fill="#00ff41" opacity="0.9"/>
<rect x="74" y="71" width="5" height="5" fill="#00ff41" opacity="0.9"/>
<rect x="79" y="71" width="5" height="5" fill="#00ff41" opacity="0.9"/>
<rect x="84" y="71" width="5" height="5" fill="#00ff41" opacity="0.9"/>
<rect x="39" y="76" width="5" height="5" fill="#00ff41" opacity="0.9"/>
<rect x="44" y="76" width="5" height="5" fill="#00ff41" opacity="0.9"/>
<rect x="49" y="76" width="5" height="5" fill="#00ff41" opacity="0.9"/>
<rect x="69" y="76" width="5" height="5" fill="#00ff41" opacity="0.9"/>
<rect x="74" y="76" width="5" height="5" fill="#00ff41" opacity="0.9"/>
<rect x="79" y="76" width="5" height="5" fill="#00ff41" opacity="0.9"/>
<rect x="84" y="76" width="5" height="5" fill="#00ff41" opacity="0.9"/>
<rect x="39" y="81" width="5" height="5" fill="#00ff41" opacity="0.9"/>
<rect x="44" y="81" width="5" height="5" fill="#00ff41" opacity="0.9"/>
<rect x="54" y="81" width="5" height="5" fill="#00ff41" opacity="0.9"/>
<rect x="59" y="81" width="5" height="5" fill="#00ff41" opacity="0.9"/>
<rect x="69" y="81" width="5" height="5" fill="#00ff41" opacity="0.9"/>
<rect x="74" y="81" width="5" height="5" fill="#00ff41" opacity="0.9"/>
<rect x="79" y="81" width="5" height="5" fill="#00ff41" opacity="0.9"/>
<rect x="84" y="81" width="5" height="5" fill="#00ff41" opacity="0.9"/>
<rect x="39" y="86" width="5" height="5" fill="#00ff41" opacity="0.9"/>
<rect x="44" y="86" width="5" height="5" fill="#00ff41" opacity="0.9"/>
<rect x="49" y="86" width="5" height="5" fill="#00ff41" opacity="0.9"/>
<rect x="54" y="86" width="5" height="5" fill="#00ff41" opacity="0.9"/>
<rect x="59" y="86" width="5" height="5" fill="#00ff41" opacity="0.9"/>
<rect x="64" y="86" width="5" height="5" fill="#00ff41" opacity="0.9"/>
<rect x="69" y="86" width="5" height="5" fill="#00ff41" opacity="0.9"/>
<rect x="74" y="86" width="5" height="5" fill="#00ff41" opacity="0.9"/>
<rect x="79" y="86" width="5" height="5" fill="#00ff41" opacity="0.9"/>
<rect x="84" y="86" width="5" height="5" fill="#00ff41" opacity="0.9"/>
<rect x="49" y="91" width="5" height="5" fill="#00ff41" opacity="0.9"/>
<rect x="54" y="91" width="5" height="5" fill="#00ff41" opacity="0.9"/>
<rect x="59" y="91" width="5" height="5" fill="#00ff41" opacity="0.9"/>
<rect x="64" y="91" width="5" height="5" fill="#00ff41" opacity="0.9"/>
<rect x="69" y="91" width="5" height="5" fill="#00ff41" opacity="0.9"/>
<rect x="74" y="91" width="5" height="5" fill="#00ff41" opacity="0.9"/>
<text x="68" y="75" font-family="'Courier New','Courier','Lucida Console',monospace" font-size="20.4" fill="#000" text-anchor="middle" font-weight="bold" opacity="0.4">AL</text>
<clipPath id="clip-nm">
  <rect x="118" y="35" width="0" height="27">
    <animate attributeName="width" from="0" to="70" dur="0.40s" begin="0.10s" fill="freeze" calcMode="linear"/>
  </rect>
</clipPath>
<text x="118" y="58" font-family="'Courier New','Courier','Lucida Console',monospace" font-size="21" fill="#00ff41" font-weight="bold" clip-path="url(#clip-nm)">Alex</text>
<rect x="118" y="66" width="105" height="24" fill="#001a00"/>
<rect x="118" y="66" width="105" height="24" fill="none" stroke="#00ff41" stroke-width="1" filter="url(#glow-sm)"/>
<text x="129" y="82" font-family="'Courier New','Courier','Lucida Console',monospace" font-size="12.5" fill="#00ff41">AI Engineer</text>
<clipPath id="clip-bio">
  <rect x="118" y="97" width="0" height="17">
    <animate attributeName="width" from="0" to="172" dur="1.61s" begin="0.78s" fill="freeze" calcMode="linear"/>
  </rect>
</clipPath>
<text x="118" y="110" font-family="'Courier New','Courier','Lucida Console',monospace" font-size="11" fill="#2d7a2d" clip-path="url(#clip-bio)">&quot;Making machines think&quot;</text>
<line x1="22" y1="122" x2="778" y2="122" stroke="#00ff41" stroke-width="1" opacity="0.3"/>
<text x="32" y="147" font-family="'Courier New','Courier','Lucida Console',monospace" font-size="10" fill="#00ff41" opacity="0.6">▶</text>
<text x="46" y="147" font-family="'Courier New','Courier','Lucida Console',monospace" font-size="10" fill="#00ff41">IT DOMAINS</text>
<rect x="32" y="154" width="74" height="26" fill="#001a00"/>
<rect x="32" y="154" width="74" height="26" fill="none" stroke="#00ff41" stroke-width="1" filter="url(#glow-sm)"/>
<text x="69" y="171" font-family="'Courier New','Courier','Lucida Console',monospace" font-size="11" fill="#00ff41" text-anchor="middle">PyTorch</text>
<rect x="116" y="154" width="87" height="26" fill="#001a00"/>
<rect x="116" y="154" width="87" height="26" fill="none" stroke="#00ff41" stroke-width="1" filter="url(#glow-sm)"/>
<text x="159.5" y="171" font-family="'Courier New','Courier','Lucida Console',monospace" font-size="11" fill="#00ff41" text-anchor="middle">LangChain</text>
<rect x="213" y="154" width="48" height="26" fill="#001a00"/>
<rect x="213" y="154" width="48" height="26" fill="none" stroke="#00ff41" stroke-width="1" filter="url(#glow-sm)"/>
<text x="237" y="171" font-family="'Courier New','Courier','Lucida Console',monospace" font-size="11" fill="#00ff41" text-anchor="middle">RAG</text>
<rect x="271" y="154" width="87" height="26" fill="#001a00"/>
<rect x="271" y="154" width="87" height="26" fill="none" stroke="#00ff41" stroke-width="1" filter="url(#glow-sm)"/>
<text x="314.5" y="171" font-family="'Courier New','Courier','Lucida Console',monospace" font-size="11" fill="#00ff41" text-anchor="middle">Vector DB</text>
<path id="sp" d="M -140 167 L 20 167 C 32 167 61 156 69 156 C 77 156 106 167 106 167 L 104 167 C 116 167 151.5 178 159.5 178 C 167.5 178 203 167 203 167 L 201 167 C 213 167 229 156 237 156 C 245 156 261 167 261 167 L 259 167 C 271 167 306.5 178 314.5 178 C 322.5 178 358 167 358 167 L 940 167" fill="none" stroke="none"/>
<rect x="108" y="164" width="6" height="6" fill="#ffff00" rx="1">
    <animate attributeName="opacity" values="1;1;0;0;1;1"
      keyTimes="0;0.212;0.232;0.352;0.362;1"
      dur="4s" repeatCount="indefinite"/>
  </rect>
<rect x="205" y="164" width="6" height="6" fill="#ffff00" rx="1">
    <animate attributeName="opacity" values="1;1;0;0;1;1"
      keyTimes="0;0.302;0.322;0.442;0.452;1"
      dur="4s" repeatCount="indefinite"/>
  </rect>
<rect x="263" y="164" width="6" height="6" fill="#ffff00" rx="1">
    <animate attributeName="opacity" values="1;1;0;0;1;1"
      keyTimes="0;0.356;0.376;0.496;0.506;1"
      dur="4s" repeatCount="indefinite"/>
  </rect>
<g filter="url(#glow-sm)">
  <animateMotion dur="4s" repeatCount="indefinite" rotate="none">
    <mpath href="#sp"/>
  </animateMotion>
  <!-- Head -->
  <rect x="-6" y="-6" width="11" height="11" fill="#00ff88" rx="1"/>
  <!-- Eyes -->
  <rect x="4" y="-4" width="2" height="2" fill="#000"/>
  <rect x="4" y="3" width="2" height="2" fill="#000"/>
  <!-- Body -->
  <rect x="-14" y="-3" width="9" height="9" fill="#00cc33" rx="1"/>
  <rect x="-26" y="-2" width="9" height="9" fill="#00cc33" rx="1"/>
  <rect x="-38" y="-3" width="9" height="9" fill="#00cc33" rx="1"/>
  <rect x="-50" y="-5" width="9" height="9" fill="#00cc33" rx="1"/>
  <rect x="-62" y="-7" width="9" height="9" fill="#00cc33" rx="1"/>
  <rect x="-74" y="-8" width="9" height="9" fill="#00cc33" rx="1"/>
  <rect x="-86" y="-7" width="9" height="9" fill="#00cc33" rx="1"/>
  <rect x="-98" y="-5" width="9" height="9" fill="#00cc33" rx="1"/>
  <rect x="-110" y="-4" width="7" height="7" fill="#00cc33" rx="1"/>
</g>
</svg>