<svg xmlns="http://www.w3.org/2000/svg" width="800" height="150" viewBox="0 0 800 150">
<style>
/* Walk right */
.wr{animation:wr-p 34s linear infinite,wr-v 34s step-end infinite}
@keyframes wr-p{0%{transform:translateX(260px)}14.71%{transform:translateX(502px)}100%{transform:translateX(502px)}}
@keyframes wr-v{0%{opacity:1}14.71%{opacity:1}14.72%{opacity:0}100%{opacity:0}}

/* At desk */
.ds{animation:ds-v 34s step-end infinite}
@keyframes ds-v{0%{opacity:0}14.71%{opacity:0}14.72%{opacity:1}50.00%{opacity:1}50.01%{opacity:0}100%{opacity:0}}

/* Walk left */
.wl{animation:wl-p 34s linear infinite,wl-v 34s step-end infinite}
@keyframes wl-p{0%{transform:translateX(502px)}50.00%{transform:translateX(502px)}64.71%{transform:translateX(260px)}100%{transform:translateX(260px)}}
@keyframes wl-v{0%{opacity:0}50.00%{opacity:0}50.01%{opacity:1}64.71%{opacity:1}64.72%{opacity:0}100%{opacity:0}}

/* Sleeping */
.sl{animation:sl-v 34s step-end infinite}
@keyframes sl-v{0%{opacity:0}64.71%{opacity:0}64.72%{opacity:1}100%{opacity:1}}

/* Leg alternation */
.fa{animation:fa .45s step-end infinite}
.fb{animation:fb .45s step-end infinite}
@keyframes fa{0%,49%{opacity:1}50%,100%{opacity:0}}
@keyframes fb{0%,49%{opacity:0}50%,100%{opacity:1}}

/* Tail wag */
.tw{animation:tw .7s ease-in-out infinite alternate;transform-box:fill-box;transform-origin:0 50%}
@keyframes tw{from{transform:rotate(-18deg)}to{transform:rotate(12deg)}}

/* Z bubbles */
.z1{animation:zf 3s ease-out infinite}
.z2{animation:zf 3s ease-out .9s infinite}
.z3{animation:zf 3s ease-out 1.8s infinite}
@keyframes zf{0%{transform:translate(0,0);opacity:0}15%{opacity:.9}100%{transform:translate(10px,-22px);opacity:0}}</style>
<rect width="800" height="110" fill="#14102a"/>
<line x1="0" y1="0" x2="800" y2="0" stroke="#1a1635" stroke-width="1"/>
<line x1="0" y1="10" x2="800" y2="10" stroke="#1a1635" stroke-width="1"/>
<line x1="0" y1="20" x2="800" y2="20" stroke="#1a1635" stroke-width="1"/>
<line x1="0" y1="30" x2="800" y2="30" stroke="#1a1635" stroke-width="1"/>
<line x1="0" y1="40" x2="800" y2="40" stroke="#1a1635" stroke-width="1"/>
<line x1="0" y1="50" x2="800" y2="50" stroke="#1a1635" stroke-width="1"/>
<line x1="0" y1="60" x2="800" y2="60" stroke="#1a1635" stroke-width="1"/>
<line x1="0" y1="70" x2="800" y2="70" stroke="#1a1635" stroke-width="1"/>
<line x1="0" y1="80" x2="800" y2="80" stroke="#1a1635" stroke-width="1"/>
<line x1="0" y1="90" x2="800" y2="90" stroke="#1a1635" stroke-width="1"/>
<line x1="0" y1="100" x2="800" y2="100" stroke="#1a1635" stroke-width="1"/>
<rect y="110" width="800" height="40" fill="#3a1e0c"/>
<line x1="0" y1="110" x2="0" y2="150" stroke="#2a1308" stroke-width="2"/>
<line x1="80" y1="110" x2="80" y2="150" stroke="#2a1308" stroke-width="2"/>
<line x1="160" y1="110" x2="160" y2="150" stroke="#2a1308" stroke-width="2"/>
<line x1="240" y1="110" x2="240" y2="150" stroke="#2a1308" stroke-width="2"/>
<line x1="320" y1="110" x2="320" y2="150" stroke="#2a1308" stroke-width="2"/>
<line x1="400" y1="110" x2="400" y2="150" stroke="#2a1308" stroke-width="2"/>
<line x1="480" y1="110" x2="480" y2="150" stroke="#2a1308" stroke-width="2"/>
<line x1="560" y1="110" x2="560" y2="150" stroke="#2a1308" stroke-width="2"/>
<line x1="640" y1="110" x2="640" y2="150" stroke="#2a1308" stroke-width="2"/>
<line x1="720" y1="110" x2="720" y2="150" stroke="#2a1308" stroke-width="2"/>
<rect y="110" width="800" height="3" fill="#502a14" opacity="0.7"/>
<rect x="13" y="5" width="128" height="106" fill="#7a5030"/>
<rect x="18" y="10" width="118" height="96" fill="#03091c"/>
<rect x="74" y="10" width="6" height="96" fill="#7a5030"/>
<rect x="18" y="55" width="118" height="6" fill="#7a5030"/>
<circle cx="102" cy="29" r="18" fill="#fff9d0" opacity="0.95"/>
<circle cx="112" cy="24" r="15" fill="#03091c"/>
<rect x="32" y="26" width="2" height="2" fill="#fffbe8" opacity="0.85"/>
<rect x="52" y="40" width="3" height="3" fill="#fffbe8" opacity="0.85"/>
<rect x="40" y="66" width="2" height="2" fill="#fffbe8" opacity="0.85"/>
<rect x="26" y="88" width="2" height="2" fill="#fffbe8" opacity="0.85"/>
<rect x="66" y="80" width="2" height="2" fill="#fffbe8" opacity="0.85"/>
<rect x="94" y="32" width="2" height="2" fill="#fffbe8" opacity="0.85"/>
<rect x="118" y="50" width="3" height="3" fill="#fffbe8" opacity="0.85"/>
<rect x="108" y="75" width="2" height="2" fill="#fffbe8" opacity="0.85"/>
<ellipse cx="77" cy="118" rx="38" ry="7" fill="#fff8c0" opacity="0.05"/>
<rect x="12" y="104" width="130" height="8" fill="#8a6040"/>
<rect x="158" y="32" width="88" height="78" fill="#3d2510"/>
<rect x="158" y="32" width="6" height="78" fill="#5a3820"/>
<rect x="240" y="32" width="6" height="78" fill="#5a3820"/>
<rect x="158" y="32" width="88" height="8" fill="#6a4428"/>
<rect x="158" y="84" width="88" height="7" fill="#6a4428"/>
<rect x="158" y="136" width="88" height="7" fill="#6a4428"/>
<rect x="166" y="48" width="14" height="36" fill="#a31515"/>
<rect x="167" y="50" width="12" height="2" fill="#ffffff22"/>
<rect x="182" y="42" width="12" height="42" fill="#155a9a"/>
<rect x="183" y="44" width="10" height="2" fill="#ffffff22"/>
<rect x="196" y="50" width="16" height="34" fill="#1a7a1a"/>
<rect x="197" y="52" width="14" height="2" fill="#ffffff22"/>
<rect x="214" y="44" width="13" height="40" fill="#8a6a10"/>
<rect x="215" y="46" width="11" height="2" fill="#ffffff22"/>
<rect x="229" y="46" width="11" height="38" fill="#6a1a6a"/>
<rect x="230" y="48" width="9" height="2" fill="#ffffff22"/>
<rect x="166" y="95" width="16" height="40" fill="#2a6a6a"/>
<rect x="167" y="97" width="14" height="2" fill="#ffffff22"/>
<rect x="184" y="100" width="12" height="35" fill="#8a3010"/>
<rect x="185" y="102" width="10" height="2" fill="#ffffff22"/>
<rect x="198" y="93" width="15" height="42" fill="#204080"/>
<rect x="199" y="95" width="13" height="2" fill="#ffffff22"/>
<rect x="215" y="97" width="18" height="38" fill="#507020"/>
<rect x="216" y="99" width="16" height="2" fill="#ffffff22"/>
<rect x="166" y="151" width="13" height="36" fill="#901515"/>
<rect x="167" y="153" width="11" height="2" fill="#ffffff22"/>
<rect x="181" y="145" width="11" height="42" fill="#304090"/>
<rect x="182" y="147" width="9" height="2" fill="#ffffff22"/>
<rect x="194" y="149" width="14" height="38" fill="#207040"/>
<rect x="195" y="151" width="12" height="2" fill="#ffffff22"/>
<rect x="218" y="127" width="8" height="16" fill="#2a6e1a"/>
<rect x="216" y="115" width="14" height="14" fill="#3a8e22" rx="5"/>
<rect x="218" y="143" width="10" height="12" fill="#6a3010"/>
<rect x="552" y="72" width="230" height="10" fill="#7a4e28"/>
<rect x="552" y="72" width="230" height="10" fill="none" stroke="#5a3410" stroke-width="1"/>
<rect x="552" y="82" width="230" height="28" fill="#6a3e1a"/>
<rect x="562" y="110" width="12" height="16" fill="#5a3010"/>
<rect x="760" y="110" width="12" height="16" fill="#5a3010"/>
<rect x="634" y="60" width="16" height="12" fill="#252535"/>
<rect x="620" y="68" width="44" height="4" fill="#252535"/>
<rect x="582" y="-16" width="120" height="88" fill="#1a1a2e" rx="4"/>
<rect x="582" y="-16" width="120" height="88" fill="none" stroke="#2e2e4e" stroke-width="2" rx="4"/>
<rect x="589" y="-9" width="106" height="70" fill="#060e1a" rx="2"/>
<rect x="589" y="-9" width="106" height="70" fill="#ff6b9d" opacity="0.05" rx="2"/>
<rect x="597" y="-3" width="60" height="3" fill="#ff6b9d" opacity="0.85" rx="1"/>
<rect x="597" y="4" width="40" height="3" fill="#4488ff" opacity="0.85" rx="1"/>
<rect x="597" y="11" width="75" height="3" fill="#ff6b9d" opacity="0.85" rx="1"/>
<rect x="597" y="18" width="50" height="3" fill="#aaaacc" opacity="0.85" rx="1"/>
<rect x="597" y="25" width="65" height="3" fill="#44ccaa" opacity="0.85" rx="1"/>
<rect x="597" y="32" width="35" height="3" fill="#4488ff" opacity="0.85" rx="1"/>
<rect x="597" y="39" width="55" height="3" fill="#ff6b9d" opacity="0.85" rx="1"/>
<rect x="597" y="46" width="42" height="3" fill="#aaaacc" opacity="0.85" rx="1"/>
<rect x="597" y="53" width="5" height="6" fill="#ff6b9d" opacity="0.9">
  <animate attributeName="opacity" values="0.9;0;0.9" keyTimes="0;0.5;1" dur="1s" repeatCount="indefinite"/>
</rect>
<circle cx="642" cy="67" r="2.5" fill="#ff6b9d" opacity="0.9">
  <animate attributeName="opacity" values="0.9;0.3;0.9" dur="3s" repeatCount="indefinite"/>
</circle>
<rect x="570" y="84" width="120" height="20" fill="#1e1e34" rx="3"/>
<rect x="570" y="84" width="120" height="20" fill="none" stroke="#2e2e44" stroke-width="1" rx="3"/>
<rect x="574" y="87" width="8" height="4" fill="#282848" rx="1"/>
<rect x="583" y="87" width="8" height="4" fill="#282848" rx="1"/>
<rect x="592" y="87" width="8" height="4" fill="#282848" rx="1"/>
<rect x="601" y="87" width="8" height="4" fill="#282848" rx="1"/>
<rect x="610" y="87" width="8" height="4" fill="#282848" rx="1"/>
<rect x="619" y="87" width="8" height="4" fill="#282848" rx="1"/>
<rect x="628" y="87" width="8" height="4" fill="#282848" rx="1"/>
<rect x="637" y="87" width="8" height="4" fill="#282848" rx="1"/>
<rect x="646" y="87" width="8" height="4" fill="#282848" rx="1"/>
<rect x="655" y="87" width="8" height="4" fill="#282848" rx="1"/>
<rect x="664" y="87" width="8" height="4" fill="#282848" rx="1"/>
<rect x="673" y="87" width="8" height="4" fill="#282848" rx="1"/>
<rect x="577" y="93" width="9" height="4" fill="#282848" rx="1"/>
<rect x="587" y="93" width="9" height="4" fill="#282848" rx="1"/>
<rect x="597" y="93" width="9" height="4" fill="#282848" rx="1"/>
<rect x="607" y="93" width="9" height="4" fill="#282848" rx="1"/>
<rect x="617" y="93" width="9" height="4" fill="#282848" rx="1"/>
<rect x="627" y="93" width="9" height="4" fill="#282848" rx="1"/>
<rect x="637" y="93" width="9" height="4" fill="#282848" rx="1"/>
<rect x="647" y="93" width="9" height="4" fill="#282848" rx="1"/>
<rect x="657" y="93" width="9" height="4" fill="#282848" rx="1"/>
<rect x="667" y="93" width="9" height="4" fill="#282848" rx="1"/>
<rect x="677" y="93" width="9" height="4" fill="#282848" rx="1"/>
<rect x="580" y="99" width="10" height="4" fill="#282848" rx="1"/>
<rect x="591" y="99" width="10" height="4" fill="#282848" rx="1"/>
<rect x="602" y="99" width="10" height="4" fill="#282848" rx="1"/>
<rect x="613" y="99" width="10" height="4" fill="#282848" rx="1"/>
<rect x="624" y="99" width="10" height="4" fill="#282848" rx="1"/>
<rect x="635" y="99" width="10" height="4" fill="#282848" rx="1"/>
<rect x="646" y="99" width="10" height="4" fill="#282848" rx="1"/>
<rect x="657" y="99" width="10" height="4" fill="#282848" rx="1"/>
<rect x="668" y="99" width="10" height="4" fill="#282848" rx="1"/>
<rect x="679" y="99" width="10" height="4" fill="#282848" rx="1"/>
<rect x="738" y="78" width="24" height="22" fill="#a0522d" rx="2"/>
<rect x="740" y="80" width="20" height="18" fill="#7a3820" rx="1"/>
<path d="M 746 74 Q 744 69 748 64" stroke="#888" stroke-width="1.5" fill="none" opacity="0.5">
  <animate attributeName="opacity" values="0.5;0.1;0.5" dur="2s" repeatCount="indefinite"/>
</path>
<path d="M 754 72 Q 752 66 756 60" stroke="#888" stroke-width="1.5" fill="none" opacity="0.4">
  <animate attributeName="opacity" values="0.4;0.1;0.4" dur="2.5s" repeatCount="indefinite"/>
</path>
<path d="M 762 83 Q 770 83 770 91 Q 770 98 762 98" stroke="#a0522d" stroke-width="3" fill="none"/>
<line x1="400" y1="0" x2="400" y2="14" stroke="#555" stroke-width="3"/>
<path d="M 378 14 L 386 30 L 414 30 L 422 14 Z" fill="#666"/>
<ellipse cx="400" cy="30" rx="14" ry="5" fill="#ffe8a0" opacity="0.95"/>
<polygon points="350,110 450,110 416,32 384,32" fill="#ffe8a0" opacity="0.04"/>
<g class="wr">
  <g class="fa"><rect x="5" y="60" width="5" height="5" fill="#ff8c3a"/><rect x="10" y="60" width="5" height="5" fill="#ff8c3a"/><rect x="35" y="60" width="5" height="5" fill="#ff8c3a"/><rect x="40" y="60" width="5" height="5" fill="#ff8c3a"/><rect x="5" y="65" width="5" height="5" fill="#ff8c3a"/><rect x="10" y="65" width="5" height="5" fill="#ff8c3a"/><rect x="15" y="65" width="5" height="5" fill="#ff8c3a"/><rect x="20" y="65" width="5" height="5" fill="#ff8c3a"/><rect x="25" y="65" width="5" height="5" fill="#ff8c3a"/><rect x="30" y="65" width="5" height="5" fill="#ff8c3a"/><rect x="35" y="65" width="5" height="5" fill="#ff8c3a"/><rect x="40" y="65" width="5" height="5" fill="#ff8c3a"/><rect x="5" y="70" width="5" height="5" fill="#ff8c3a"/><rect x="10" y="70" width="5" height="5" fill="#28c459"/><rect x="15" y="70" width="5" height="5" fill="#082808"/><rect x="20" y="70" width="5" height="5" fill="#ff8c3a"/><rect x="25" y="70" width="5" height="5" fill="#ff8c3a"/><rect x="30" y="70" width="5" height="5" fill="#28c459"/><rect x="35" y="70" width="5" height="5" fill="#082808"/><rect x="40" y="70" width="5" height="5" fill="#ff8c3a"/><rect x="5" y="75" width="5" height="5" fill="#ff8c3a"/><rect x="10" y="75" width="5" height="5" fill="#ff8c3a"/><rect x="15" y="75" width="5" height="5" fill="#c96800"/><rect x="20" y="75" width="5" height="5" fill="#c96800"/><rect x="25" y="75" width="5" height="5" fill="#ff8c3a"/><rect x="30" y="75" width="5" height="5" fill="#c96800"/><rect x="35" y="75" width="5" height="5" fill="#c96800"/><rect x="40" y="75" width="5" height="5" fill="#ff8c3a"/><rect x="5" y="80" width="5" height="5" fill="#ff8c3a"/><rect x="10" y="80" width="5" height="5" fill="#c96800"/><rect x="15" y="80" width="5" height="5" fill="#fff5e0"/><rect x="20" y="80" width="5" height="5" fill="#ff3060"/><rect x="25" y="80" width="5" height="5" fill="#ff3060"/><rect x="30" y="80" width="5" height="5" fill="#fff5e0"/><rect x="35" y="80" width="5" height="5" fill="#c96800"/><rect x="40" y="80" width="5" height="5" fill="#ff8c3a"/><rect x="5" y="85" width="5" height="5" fill="#ff8c3a"/><rect x="10" y="85" width="5" height="5" fill="#ff8c3a"/><rect x="15" y="85" width="5" height="5" fill="#ff8c3a"/><rect x="20" y="85" width="5" height="5" fill="#ff8c3a"/><rect x="25" y="85" width="5" height="5" fill="#ff8c3a"/><rect x="30" y="85" width="5" height="5" fill="#ff8c3a"/><rect x="35" y="85" width="5" height="5" fill="#ff8c3a"/><rect x="40" y="85" width="5" height="5" fill="#ff8c3a"/><rect x="0" y="90" width="5" height="5" fill="#ff8c3a"/><rect x="5" y="90" width="5" height="5" fill="#ff8c3a"/><rect x="10" y="90" width="5" height="5" fill="#ff8c3a"/><rect x="15" y="90" width="5" height="5" fill="#ff8c3a"/><rect x="20" y="90" width="5" height="5" fill="#ff8c3a"/><rect x="25" y="90" width="5" height="5" fill="#ff8c3a"/><rect x="30" y="90" width="5" height="5" fill="#ff8c3a"/><rect x="35" y="90" width="5" height="5" fill="#ff8c3a"/><rect x="40" y="90" width="5" height="5" fill="#ff8c3a"/><rect x="45" y="90" width="5" height="5" fill="#ff8c3a"/><rect x="5" y="95" width="5" height="5" fill="#ff8c3a"/><rect x="10" y="95" width="5" height="5" fill="#fff5e0"/><rect x="15" y="95" width="5" height="5" fill="#fff5e0"/><rect x="20" y="95" width="5" height="5" fill="#fff5e0"/><rect x="25" y="95" width="5" height="5" fill="#fff5e0"/><rect x="30" y="95" width="5" height="5" fill="#fff5e0"/><rect x="35" y="95" width="5" height="5" fill="#ff8c3a"/><rect x="40" y="95" width="5" height="5" fill="#ff8c3a"/><rect x="5" y="100" width="5" height="5" fill="#ff8c3a"/><rect x="10" y="100" width="5" height="5" fill="#ff8c3a"/><rect x="15" y="100" width="5" height="5" fill="#ff8c3a"/><rect x="30" y="100" width="5" height="5" fill="#ff8c3a"/><rect x="35" y="100" width="5" height="5" fill="#ff8c3a"/><rect x="40" y="100" width="5" height="5" fill="#ff8c3a"/><rect x="10" y="105" width="5" height="5" fill="#ff8c3a"/><rect x="15" y="105" width="5" height="5" fill="#ff8c3a"/><rect x="30" y="105" width="5" height="5" fill="#ff8c3a"/><rect x="35" y="105" width="5" height="5" fill="#ff8c3a"/></g>
  <g class="fb"><rect x="5" y="60" width="5" height="5" fill="#ff8c3a"/><rect x="10" y="60" width="5" height="5" fill="#ff8c3a"/><rect x="35" y="60" width="5" height="5" fill="#ff8c3a"/><rect x="40" y="60" width="5" height="5" fill="#ff8c3a"/><rect x="5" y="65" width="5" height="5" fill="#ff8c3a"/><rect x="10" y="65" width="5" height="5" fill="#ff8c3a"/><rect x="15" y="65" width="5" height="5" fill="#ff8c3a"/><rect x="20" y="65" width="5" height="5" fill="#ff8c3a"/><rect x="25" y="65" width="5" height="5" fill="#ff8c3a"/><rect x="30" y="65" width="5" height="5" fill="#ff8c3a"/><rect x="35" y="65" width="5" height="5" fill="#ff8c3a"/><rect x="40" y="65" width="5" height="5" fill="#ff8c3a"/><rect x="5" y="70" width="5" height="5" fill="#ff8c3a"/><rect x="10" y="70" width="5" height="5" fill="#28c459"/><rect x="15" y="70" width="5" height="5" fill="#082808"/><rect x="20" y="70" width="5" height="5" fill="#ff8c3a"/><rect x="25" y="70" width="5" height="5" fill="#ff8c3a"/><rect x="30" y="70" width="5" height="5" fill="#28c459"/><rect x="35" y="70" width="5" height="5" fill="#082808"/><rect x="40" y="70" width="5" height="5" fill="#ff8c3a"/><rect x="5" y="75" width="5" height="5" fill="#ff8c3a"/><rect x="10" y="75" width="5" height="5" fill="#ff8c3a"/><rect x="15" y="75" width="5" height="5" fill="#c96800"/><rect x="20" y="75" width="5" height="5" fill="#c96800"/><rect x="25" y="75" width="5" height="5" fill="#ff8c3a"/><rect x="30" y="75" width="5" height="5" fill="#c96800"/><rect x="35" y="75" width="5" height="5" fill="#c96800"/><rect x="40" y="75" width="5" height="5" fill="#ff8c3a"/><rect x="5" y="80" width="5" height="5" fill="#ff8c3a"/><rect x="10" y="80" width="5" height="5" fill="#c96800"/><rect x="15" y="80" width="5" height="5" fill="#fff5e0"/><rect x="20" y="80" width="5" height="5" fill="#ff3060"/><rect x="25" y="80" width="5" height="5" fill="#ff3060"/><rect x="30" y="80" width="5" height="5" fill="#fff5e0"/><rect x="35" y="80" width="5" height="5" fill="#c96800"/><rect x="40" y="80" width="5" height="5" fill="#ff8c3a"/><rect x="5" y="85" width="5" height="5" fill="#ff8c3a"/><rect x="10" y="85" width="5" height="5" fill="#ff8c3a"/><rect x="15" y="85" width="5" height="5" fill="#ff8c3a"/><rect x="20" y="85" width="5" height="5" fill="#ff8c3a"/><rect x="25" y="85" width="5" height="5" fill="#ff8c3a"/><rect x="30" y="85" width="5" height="5" fill="#ff8c3a"/><rect x="35" y="85" width="5" height="5" fill="#ff8c3a"/><rect x="40" y="85" width="5" height="5" fill="#ff8c3a"/><rect x="0" y="90" width="5" height="5" fill="#ff8c3a"/><rect x="5" y="90" width="5" height="5" fill="#ff8c3a"/><rect x="10" y="90" width="5" height="5" fill="#ff8c3a"/><rect x="15" y="90" width="5" height="5" fill="#ff8c3a"/><rect x="20" y="90" width="5" height="5" fill="#ff8c3a"/><rect x="25" y="90" width="5" height="5" fill="#ff8c3a"/><rect x="30" y="90" width="5" height="5" fill="#ff8c3a"/><rect x="35" y="90" width="5" height="5" fill="#ff8c3a"/><rect x="40" y="90" width="5" height="5" fill="#ff8c3a"/><rect x="45" y="90" width="5" height="5" fill="#ff8c3a"/><rect x="5" y="95" width="5" height="5" fill="#ff8c3a"/><rect x="10" y="95" width="5" height="5" fill="#fff5e0"/><rect x="15" y="95" width="5" height="5" fill="#fff5e0"/><rect x="20" y="95" width="5" height="5" fill="#fff5e0"/><rect x="25" y="95" width="5" height="5" fill="#fff5e0"/><rect x="30" y="95" width="5" height="5" fill="#fff5e0"/><rect x="35" y="95" width="5" height="5" fill="#ff8c3a"/><rect x="40" y="95" width="5" height="5" fill="#ff8c3a"/><rect x="10" y="100" width="5" height="5" fill="#ff8c3a"/><rect x="15" y="100" width="5" height="5" fill="#ff8c3a"/><rect x="20" y="100" width="5" height="5" fill="#ff8c3a"/><rect x="30" y="100" width="5" height="5" fill="#ff8c3a"/><rect x="35" y="100" width="5" height="5" fill="#ff8c3a"/><rect x="40" y="100" width="5" height="5" fill="#ff8c3a"/><rect x="10" y="105" width="5" height="5" fill="#ff8c3a"/><rect x="15" y="105" width="5" height="5" fill="#ff8c3a"/><rect x="30" y="105" width="5" height="5" fill="#ff8c3a"/><rect x="35" y="105" width="5" height="5" fill="#ff8c3a"/></g>
</g>
<g class="ds" transform="translate(502,0)">
  <rect x="5" y="55" width="5" height="5" fill="#ff8c3a"/><rect x="10" y="55" width="5" height="5" fill="#ff8c3a"/><rect x="35" y="55" width="5" height="5" fill="#ff8c3a"/><rect x="40" y="55" width="5" height="5" fill="#ff8c3a"/><rect x="5" y="60" width="5" height="5" fill="#ff8c3a"/><rect x="10" y="60" width="5" height="5" fill="#ff8c3a"/><rect x="15" y="60" width="5" height="5" fill="#ff8c3a"/><rect x="20" y="60" width="5" height="5" fill="#ff8c3a"/><rect x="25" y="60" width="5" height="5" fill="#ff8c3a"/><rect x="30" y="60" width="5" height="5" fill="#ff8c3a"/><rect x="35" y="60" width="5" height="5" fill="#ff8c3a"/><rect x="40" y="60" width="5" height="5" fill="#ff8c3a"/><rect x="5" y="65" width="5" height="5" fill="#ff8c3a"/><rect x="10" y="65" width="5" height="5" fill="#28c459"/><rect x="15" y="65" width="5" height="5" fill="#082808"/><rect x="20" y="65" width="5" height="5" fill="#ff8c3a"/><rect x="25" y="65" width="5" height="5" fill="#ff8c3a"/><rect x="30" y="65" width="5" height="5" fill="#28c459"/><rect x="35" y="65" width="5" height="5" fill="#082808"/><rect x="40" y="65" width="5" height="5" fill="#ff8c3a"/><rect x="5" y="70" width="5" height="5" fill="#ff8c3a"/><rect x="10" y="70" width="5" height="5" fill="#ff8c3a"/><rect x="15" y="70" width="5" height="5" fill="#c96800"/><rect x="20" y="70" width="5" height="5" fill="#c96800"/><rect x="25" y="70" width="5" height="5" fill="#ff8c3a"/><rect x="30" y="70" width="5" height="5" fill="#c96800"/><rect x="35" y="70" width="5" height="5" fill="#c96800"/><rect x="40" y="70" width="5" height="5" fill="#ff8c3a"/><rect x="5" y="75" width="5" height="5" fill="#ff8c3a"/><rect x="10" y="75" width="5" height="5" fill="#c96800"/><rect x="15" y="75" width="5" height="5" fill="#fff5e0"/><rect x="20" y="75" width="5" height="5" fill="#ff3060"/><rect x="25" y="75" width="5" height="5" fill="#ff3060"/><rect x="30" y="75" width="5" height="5" fill="#fff5e0"/><rect x="35" y="75" width="5" height="5" fill="#c96800"/><rect x="40" y="75" width="5" height="5" fill="#ff8c3a"/><rect x="5" y="80" width="5" height="5" fill="#ff8c3a"/><rect x="10" y="80" width="5" height="5" fill="#ff8c3a"/><rect x="15" y="80" width="5" height="5" fill="#ff8c3a"/><rect x="20" y="80" width="5" height="5" fill="#ff8c3a"/><rect x="25" y="80" width="5" height="5" fill="#ff8c3a"/><rect x="30" y="80" width="5" height="5" fill="#ff8c3a"/><rect x="35" y="80" width="5" height="5" fill="#ff8c3a"/><rect x="40" y="80" width="5" height="5" fill="#ff8c3a"/><rect x="5" y="85" width="5" height="5" fill="#ff8c3a"/><rect x="10" y="85" width="5" height="5" fill="#fff5e0"/><rect x="15" y="85" width="5" height="5" fill="#fff5e0"/><rect x="20" y="85" width="5" height="5" fill="#fff5e0"/><rect x="25" y="85" width="5" height="5" fill="#fff5e0"/><rect x="30" y="85" width="5" height="5" fill="#fff5e0"/><rect x="35" y="85" width="5" height="5" fill="#ff8c3a"/><rect x="40" y="85" width="5" height="5" fill="#ff8c3a"/><rect x="0" y="90" width="5" height="5" fill="#ff8c3a"/><rect x="5" y="90" width="5" height="5" fill="#ff8c3a"/><rect x="10" y="90" width="5" height="5" fill="#ff8c3a"/><rect x="15" y="90" width="5" height="5" fill="#ff8c3a"/><rect x="20" y="90" width="5" height="5" fill="#ff8c3a"/><rect x="25" y="90" width="5" height="5" fill="#ff8c3a"/><rect x="30" y="90" width="5" height="5" fill="#ff8c3a"/><rect x="35" y="90" width="5" height="5" fill="#ff8c3a"/><rect x="40" y="90" width="5" height="5" fill="#ff8c3a"/><rect x="45" y="90" width="5" height="5" fill="#ff8c3a"/><rect x="0" y="95" width="5" height="5" fill="#ff8c3a"/><rect x="5" y="95" width="5" height="5" fill="#ff8c3a"/><rect x="10" y="95" width="5" height="5" fill="#ff8c3a"/><rect x="15" y="95" width="5" height="5" fill="#ff8c3a"/><rect x="20" y="95" width="5" height="5" fill="#ff8c3a"/><rect x="25" y="95" width="5" height="5" fill="#ff8c3a"/><rect x="30" y="95" width="5" height="5" fill="#ff8c3a"/><rect x="35" y="95" width="5" height="5" fill="#ff8c3a"/><rect x="40" y="95" width="5" height="5" fill="#ff8c3a"/><rect x="45" y="95" width="5" height="5" fill="#ff8c3a"/><rect x="5" y="100" width="5" height="5" fill="#ff8c3a"/><rect x="10" y="100" width="5" height="5" fill="#ff8c3a"/><rect x="15" y="100" width="5" height="5" fill="#ff8c3a"/><rect x="20" y="100" width="5" height="5" fill="#ff8c3a"/><rect x="25" y="100" width="5" height="5" fill="#ff8c3a"/><rect x="30" y="100" width="5" height="5" fill="#ff8c3a"/><rect x="35" y="100" width="5" height="5" fill="#ff8c3a"/><rect x="40" y="100" width="5" height="5" fill="#ff8c3a"/>
  <g class="tw"><rect x="55" y="105" width="5" height="5" fill="#c96800"/><rect x="60" y="105" width="5" height="5" fill="#c96800"/><rect x="65" y="105" width="5" height="5" fill="#c96800"/><rect x="70" y="105" width="5" height="5" fill="#c96800"/><rect x="75" y="105" width="5" height="5" fill="#c96800"/><rect x="80" y="105" width="5" height="5" fill="#c96800"/><rect x="85" y="105" width="5" height="5" fill="#c96800"/><rect x="90" y="105" width="5" height="5" fill="#c96800"/></g>
</g>
<g class="wl">
  <g class="fa"><rect x="5" y="60" width="5" height="5" fill="#ff8c3a"/><rect x="10" y="60" width="5" height="5" fill="#ff8c3a"/><rect x="35" y="60" width="5" height="5" fill="#ff8c3a"/><rect x="40" y="60" width="5" height="5" fill="#ff8c3a"/><rect x="5" y="65" width="5" height="5" fill="#ff8c3a"/><rect x="10" y="65" width="5" height="5" fill="#ff8c3a"/><rect x="15" y="65" width="5" height="5" fill="#ff8c3a"/><rect x="20" y="65" width="5" height="5" fill="#ff8c3a"/><rect x="25" y="65" width="5" height="5" fill="#ff8c3a"/><rect x="30" y="65" width="5" height="5" fill="#ff8c3a"/><rect x="35" y="65" width="5" height="5" fill="#ff8c3a"/><rect x="40" y="65" width="5" height="5" fill="#ff8c3a"/><rect x="5" y="70" width="5" height="5" fill="#ff8c3a"/><rect x="10" y="70" width="5" height="5" fill="#082808"/><rect x="15" y="70" width="5" height="5" fill="#28c459"/><rect x="20" y="70" width="5" height="5" fill="#ff8c3a"/><rect x="25" y="70" width="5" height="5" fill="#ff8c3a"/><rect x="30" y="70" width="5" height="5" fill="#082808"/><rect x="35" y="70" width="5" height="5" fill="#28c459"/><rect x="40" y="70" width="5" height="5" fill="#ff8c3a"/><rect x="5" y="75" width="5" height="5" fill="#ff8c3a"/><rect x="10" y="75" width="5" height="5" fill="#c96800"/><rect x="15" y="75" width="5" height="5" fill="#c96800"/><rect x="20" y="75" width="5" height="5" fill="#ff8c3a"/><rect x="25" y="75" width="5" height="5" fill="#c96800"/><rect x="30" y="75" width="5" height="5" fill="#c96800"/><rect x="35" y="75" width="5" height="5" fill="#ff8c3a"/><rect x="40" y="75" width="5" height="5" fill="#ff8c3a"/><rect x="5" y="80" width="5" height="5" fill="#ff8c3a"/><rect x="10" y="80" width="5" height="5" fill="#c96800"/><rect x="15" y="80" width="5" height="5" fill="#fff5e0"/><rect x="20" y="80" width="5" height="5" fill="#ff3060"/><rect x="25" y="80" width="5" height="5" fill="#ff3060"/><rect x="30" y="80" width="5" height="5" fill="#fff5e0"/><rect x="35" y="80" width="5" height="5" fill="#c96800"/><rect x="40" y="80" width="5" height="5" fill="#ff8c3a"/><rect x="5" y="85" width="5" height="5" fill="#ff8c3a"/><rect x="10" y="85" width="5" height="5" fill="#ff8c3a"/><rect x="15" y="85" width="5" height="5" fill="#ff8c3a"/><rect x="20" y="85" width="5" height="5" fill="#ff8c3a"/><rect x="25" y="85" width="5" height="5" fill="#ff8c3a"/><rect x="30" y="85" width="5" height="5" fill="#ff8c3a"/><rect x="35" y="85" width="5" height="5" fill="#ff8c3a"/><rect x="40" y="85" width="5" height="5" fill="#ff8c3a"/><rect x="0" y="90" width="5" height="5" fill="#ff8c3a"/><rect x="5" y="90" width="5" height="5" fill="#ff8c3a"/><rect x="10" y="90" width="5" height="5" fill="#ff8c3a"/><rect x="15" y="90" width="5" height="5" fill="#ff8c3a"/><rect x="20" y="90" width="5" height="5" fill="#ff8c3a"/><rect x="25" y="90" width="5" height="5" fill="#ff8c3a"/><rect x="30" y="90" width="5" height="5" fill="#ff8c3a"/><rect x="35" y="90" width="5" height="5" fill="#ff8c3a"/><rect x="40" y="90" width="5" height="5" fill="#ff8c3a"/><rect x="45" y="90" width="5" height="5" fill="#ff8c3a"/><rect x="5" y="95" width="5" height="5" fill="#ff8c3a"/><rect x="10" y="95" width="5" height="5" fill="#ff8c3a"/><rect x="15" y="95" width="5" height="5" fill="#fff5e0"/><rect x="20" y="95" width="5" height="5" fill="#fff5e0"/><rect x="25" y="95" width="5" height="5" fill="#fff5e0"/><rect x="30" y="95" width="5" height="5" fill="#fff5e0"/><rect x="35" y="95" width="5" height="5" fill="#fff5e0"/><rect x="40" y="95" width="5" height="5" fill="#ff8c3a"/><rect x="5" y="100" width="5" height="5" fill="#ff8c3a"/><rect x="10" y="100" width="5" height="5" fill="#ff8c3a"/><rect x="15" y="100" width="5" height="5" fill="#ff8c3a"/><rect x="30" y="100" width="5" height="5" fill="#ff8c3a"/><rect x="35" y="100" width="5" height="5" fill="#ff8c3a"/><rect x="40" y="100" width="5" height="5" fill="#ff8c3a"/><rect x="10" y="105" width="5" height="5" fill="#ff8c3a"/><rect x="15" y="105" width="5" height="5" fill="#ff8c3a"/><rect x="30" y="105" width="5" height="5" fill="#ff8c3a"/><rect x="35" y="105" width="5" height="5" fill="#ff8c3a"/></g>
  <g class="fb"><rect x="5" y="60" width="5" height="5" fill="#ff8c3a"/><rect x="10" y="60" width="5" height="5" fill="#ff8c3a"/><rect x="35" y="60" width="5" height="5" fill="#ff8c3a"/><rect x="40" y="60" width="5" height="5" fill="#ff8c3a"/><rect x="5" y="65" width="5" height="5" fill="#ff8c3a"/><rect x="10" y="65" width="5" height="5" fill="#ff8c3a"/><rect x="15" y="65" width="5" height="5" fill="#ff8c3a"/><rect x="20" y="65" width="5" height="5" fill="#ff8c3a"/><rect x="25" y="65" width="5" height="5" fill="#ff8c3a"/><rect x="30" y="65" width="5" height="5" fill="#ff8c3a"/><rect x="35" y="65" width="5" height="5" fill="#ff8c3a"/><rect x="40" y="65" width="5" height="5" fill="#ff8c3a"/><rect x="5" y="70" width="5" height="5" fill="#ff8c3a"/><rect x="10" y="70" width="5" height="5" fill="#082808"/><rect x="15" y="70" width="5" height="5" fill="#28c459"/><rect x="20" y="70" width="5" height="5" fill="#ff8c3a"/><rect x="25" y="70" width="5" height="5" fill="#ff8c3a"/><rect x="30" y="70" width="5" height="5" fill="#082808"/><rect x="35" y="70" width="5" height="5" fill="#28c459"/><rect x="40" y="70" width="5" height="5" fill="#ff8c3a"/><rect x="5" y="75" width="5" height="5" fill="#ff8c3a"/><rect x="10" y="75" width="5" height="5" fill="#c96800"/><rect x="15" y="75" width="5" height="5" fill="#c96800"/><rect x="20" y="75" width="5" height="5" fill="#ff8c3a"/><rect x="25" y="75" width="5" height="5" fill="#c96800"/><rect x="30" y="75" width="5" height="5" fill="#c96800"/><rect x="35" y="75" width="5" height="5" fill="#ff8c3a"/><rect x="40" y="75" width="5" height="5" fill="#ff8c3a"/><rect x="5" y="80" width="5" height="5" fill="#ff8c3a"/><rect x="10" y="80" width="5" height="5" fill="#c96800"/><rect x="15" y="80" width="5" height="5" fill="#fff5e0"/><rect x="20" y="80" width="5" height="5" fill="#ff3060"/><rect x="25" y="80" width="5" height="5" fill="#ff3060"/><rect x="30" y="80" width="5" height="5" fill="#fff5e0"/><rect x="35" y="80" width="5" height="5" fill="#c96800"/><rect x="40" y="80" width="5" height="5" fill="#ff8c3a"/><rect x="5" y="85" width="5" height="5" fill="#ff8c3a"/><rect x="10" y="85" width="5" height="5" fill="#ff8c3a"/><rect x="15" y="85" width="5" height="5" fill="#ff8c3a"/><rect x="20" y="85" width="5" height="5" fill="#ff8c3a"/><rect x="25" y="85" width="5" height="5" fill="#ff8c3a"/><rect x="30" y="85" width="5" height="5" fill="#ff8c3a"/><rect x="35" y="85" width="5" height="5" fill="#ff8c3a"/><rect x="40" y="85" width="5" height="5" fill="#ff8c3a"/><rect x="0" y="90" width="5" height="5" fill="#ff8c3a"/><rect x="5" y="90" width="5" height="5" fill="#ff8c3a"/><rect x="10" y="90" width="5" height="5" fill="#ff8c3a"/><rect x="15" y="90" width="5" height="5" fill="#ff8c3a"/><rect x="20" y="90" width="5" height="5" fill="#ff8c3a"/><rect x="25" y="90" width="5" height="5" fill="#ff8c3a"/><rect x="30" y="90" width="5" height="5" fill="#ff8c3a"/><rect x="35" y="90" width="5" height="5" fill="#ff8c3a"/><rect x="40" y="90" width="5" height="5" fill="#ff8c3a"/><rect x="45" y="90" width="5" height="5" fill="#ff8c3a"/><rect x="5" y="95" width="5" height="5" fill="#ff8c3a"/><rect x="10" y="95" width="5" height="5" fill="#ff8c3a"/><rect x="15" y="95" width="5" height="5" fill="#fff5e0"/><rect x="20" y="95" width="5" height="5" fill="#fff5e0"/><rect x="25" y="95" width="5" height="5" fill="#fff5e0"/><rect x="30" y="95" width="5" height="5" fill="#fff5e0"/><rect x="35" y="95" width="5" height="5" fill="#fff5e0"/><rect x="40" y="95" width="5" height="5" fill="#ff8c3a"/><rect x="5" y="100" width="5" height="5" fill="#ff8c3a"/><rect x="10" y="100" width="5" height="5" fill="#ff8c3a"/><rect x="15" y="100" width="5" height="5" fill="#ff8c3a"/><rect x="25" y="100" width="5" height="5" fill="#ff8c3a"/><rect x="30" y="100" width="5" height="5" fill="#ff8c3a"/><rect x="35" y="100" width="5" height="5" fill="#ff8c3a"/><rect x="10" y="105" width="5" height="5" fill="#ff8c3a"/><rect x="15" y="105" width="5" height="5" fill="#ff8c3a"/><rect x="30" y="105" width="5" height="5" fill="#ff8c3a"/><rect x="35" y="105" width="5" height="5" fill="#ff8c3a"/></g>
</g>
<g class="sl" transform="translate(28,0)">
  <rect x="10" y="75" width="5" height="5" fill="#ff8c3a"/><rect x="15" y="75" width="5" height="5" fill="#ff8c3a"/><rect x="20" y="75" width="5" height="5" fill="#ff8c3a"/><rect x="25" y="75" width="5" height="5" fill="#ff8c3a"/><rect x="30" y="75" width="5" height="5" fill="#ff8c3a"/><rect x="35" y="75" width="5" height="5" fill="#ff8c3a"/><rect x="5" y="80" width="5" height="5" fill="#ff8c3a"/><rect x="10" y="80" width="5" height="5" fill="#ff8c3a"/><rect x="15" y="80" width="5" height="5" fill="#ff8c3a"/><rect x="20" y="80" width="5" height="5" fill="#ff8c3a"/><rect x="25" y="80" width="5" height="5" fill="#ff8c3a"/><rect x="30" y="80" width="5" height="5" fill="#ff8c3a"/><rect x="35" y="80" width="5" height="5" fill="#ff8c3a"/><rect x="40" y="80" width="5" height="5" fill="#ff8c3a"/><rect x="5" y="85" width="5" height="5" fill="#ff8c3a"/><rect x="10" y="85" width="5" height="5" fill="#ff8c3a"/><rect x="15" y="85" width="5" height="5" fill="#c96800"/><rect x="20" y="85" width="5" height="5" fill="#c96800"/><rect x="25" y="85" width="5" height="5" fill="#ff8c3a"/><rect x="30" y="85" width="5" height="5" fill="#c96800"/><rect x="35" y="85" width="5" height="5" fill="#c96800"/><rect x="40" y="85" width="5" height="5" fill="#ff8c3a"/><rect x="5" y="90" width="5" height="5" fill="#ff8c3a"/><rect x="10" y="90" width="5" height="5" fill="#ff8c3a"/><rect x="15" y="90" width="5" height="5" fill="#ff8c3a"/><rect x="20" y="90" width="5" height="5" fill="#ff8c3a"/><rect x="25" y="90" width="5" height="5" fill="#ff8c3a"/><rect x="30" y="90" width="5" height="5" fill="#ff8c3a"/><rect x="35" y="90" width="5" height="5" fill="#ff8c3a"/><rect x="40" y="90" width="5" height="5" fill="#ff8c3a"/><rect x="5" y="95" width="5" height="5" fill="#ff8c3a"/><rect x="10" y="95" width="5" height="5" fill="#c96800"/><rect x="15" y="95" width="5" height="5" fill="#fff5e0"/><rect x="20" y="95" width="5" height="5" fill="#ff3060"/><rect x="25" y="95" width="5" height="5" fill="#ff3060"/><rect x="30" y="95" width="5" height="5" fill="#fff5e0"/><rect x="35" y="95" width="5" height="5" fill="#c96800"/><rect x="40" y="95" width="5" height="5" fill="#ff8c3a"/><rect x="0" y="100" width="5" height="5" fill="#ff8c3a"/><rect x="5" y="100" width="5" height="5" fill="#ff8c3a"/><rect x="10" y="100" width="5" height="5" fill="#ff8c3a"/><rect x="15" y="100" width="5" height="5" fill="#ff8c3a"/><rect x="20" y="100" width="5" height="5" fill="#ff8c3a"/><rect x="25" y="100" width="5" height="5" fill="#ff8c3a"/><rect x="30" y="100" width="5" height="5" fill="#ff8c3a"/><rect x="35" y="100" width="5" height="5" fill="#ff8c3a"/><rect x="40" y="100" width="5" height="5" fill="#ff8c3a"/><rect x="45" y="100" width="5" height="5" fill="#ff8c3a"/><rect x="5" y="105" width="5" height="5" fill="#ff8c3a"/><rect x="10" y="105" width="5" height="5" fill="#ff8c3a"/><rect x="15" y="105" width="5" height="5" fill="#ff8c3a"/><rect x="20" y="105" width="5" height="5" fill="#ff8c3a"/><rect x="25" y="105" width="5" height="5" fill="#ff8c3a"/><rect x="30" y="105" width="5" height="5" fill="#ff8c3a"/><rect x="35" y="105" width="5" height="5" fill="#ff8c3a"/><rect x="40" y="105" width="5" height="5" fill="#ff8c3a"/><rect x="5" y="110" width="5" height="5" fill="#c96800"/><rect x="10" y="110" width="5" height="5" fill="#c96800"/><rect x="15" y="110" width="5" height="5" fill="#c96800"/><rect x="20" y="110" width="5" height="5" fill="#c96800"/><rect x="25" y="110" width="5" height="5" fill="#c96800"/><rect x="30" y="110" width="5" height="5" fill="#c96800"/><rect x="35" y="110" width="5" height="5" fill="#c96800"/><rect x="40" y="110" width="5" height="5" fill="#c96800"/>
  <text class="z1" x="56" y="73" font-family="monospace" font-size="11" fill="#9999aa" font-weight="bold">z</text>
  <text class="z2" x="64" y="65" font-family="monospace" font-size="14" fill="#7777aa" font-weight="bold">z</text>
  <text class="z3" x="72" y="55" font-family="monospace" font-size="17" fill="#5555aa" font-weight="bold">Z</text>
</g>
</svg>